<svg width="174" height="32" viewBox="0 0 174 32" fill="none" xmlns="http://www.w3.org/2000/svg">
<path d="M0 16.0156V15.2344C0 12.5781 0.130208 10.3516 0.390625 8.55469C0.651042 6.74479 1.10026 5.27344 1.73828 4.14062C2.3763 3.00781 3.24219 2.14193 4.33594 1.54297C5.44271 0.94401 6.82943 0.540365 8.49609 0.332031C10.1628 0.110677 12.168 0 14.5117 0H22.3828C25.0651 0 27.3242 0.130208 29.1602 0.390625C31.0091 0.638021 32.4935 1.13932 33.6133 1.89453C34.7461 2.63672 35.5664 3.73698 36.0742 5.19531C36.582 6.64062 36.8359 8.5612 36.8359 10.957H33.0859C33.0859 9.06901 32.9167 7.60417 32.5781 6.5625C32.2396 5.50781 31.6667 4.74609 30.8594 4.27734C30.0651 3.80859 28.9779 3.52214 27.5977 3.41797C26.2174 3.30078 24.4792 3.24219 22.3828 3.24219H14.5117C12.6497 3.24219 11.0807 3.30078 9.80469 3.41797C8.52865 3.52214 7.48698 3.77604 6.67969 4.17969C5.88542 4.57031 5.27344 5.19531 4.84375 6.05469C4.42708 6.91406 4.14062 8.08594 3.98438 9.57031C3.82812 11.0547 3.75 12.9427 3.75 15.2344V16.0156C3.75 18.2292 3.82812 20.0651 3.98438 21.5234C4.14062 22.9818 4.42708 24.1471 4.84375 25.0195C5.27344 25.8919 5.88542 26.543 6.67969 26.9727C7.48698 27.4023 8.52865 27.6823 9.80469 27.8125C11.0807 27.9427 12.6497 28.0078 14.5117 28.0078H22.3828C24.4792 28.0078 26.2174 27.9622 27.5977 27.8711C28.9779 27.7799 30.0651 27.513 30.8594 27.0703C31.6667 26.6276 32.2396 25.8919 32.5781 24.8633C32.9167 23.8216 33.0859 22.3633 33.0859 20.4883H36.8359C36.8359 22.8841 36.582 24.7982 36.0742 26.2305C35.5664 27.6628 34.7461 28.7435 33.6133 29.4727C32.4935 30.1888 31.0091 30.6641 29.1602 30.8984C27.3242 31.1328 25.0651 31.25 22.3828 31.25H14.5117C11.582 31.25 9.17318 31.0482 7.28516 30.6445C5.39714 30.2539 3.91927 29.5247 2.85156 28.457C1.79688 27.3893 1.05469 25.8529 0.625 23.8477C0.208333 21.8424 0 19.2318 0 16.0156ZM43.2422 30.625V0.625H46.9922V13.75H74.4922V0.625H78.2422V30.625H74.4922V16.875H46.9922V30.625H43.2422ZM85.8984 0.625H105.977C108.906 0.625 111.263 0.755208 113.047 1.01562C114.844 1.27604 116.204 1.72526 117.129 2.36328C118.053 3.0013 118.678 3.8737 119.004 4.98047C119.329 6.08724 119.492 7.48698 119.492 9.17969V9.96094C119.492 11.5234 119.303 12.8711 118.926 14.0039C118.561 15.1237 117.852 16.0352 116.797 16.7383C115.742 17.4284 114.18 17.9167 112.109 18.2031L118.633 30.625H114.883L108.496 18.4766C108.236 18.4896 107.962 18.4961 107.676 18.4961C107.402 18.4961 107.116 18.4961 106.816 18.4961H89.6484V30.625H85.8984V0.625ZM89.6484 15.2539H106.23C108.457 15.2539 110.208 15.1823 111.484 15.0391C112.773 14.8828 113.717 14.6159 114.316 14.2383C114.928 13.8607 115.319 13.3268 115.488 12.6367C115.658 11.9466 115.742 11.0547 115.742 9.96094V9.17969C115.742 7.94271 115.625 6.96615 115.391 6.25C115.156 5.53385 114.688 5.00651 113.984 4.66797C113.281 4.32943 112.233 4.11458 110.84 4.02344C109.447 3.91927 107.585 3.86719 105.254 3.86719H89.6484V15.2539ZM126.602 30.625V0.625H130.352V30.625H126.602ZM169.785 21.9531C169.785 20.7943 169.694 19.8828 169.512 19.2188C169.329 18.5547 168.919 18.0664 168.281 17.7539C167.643 17.4284 166.654 17.2201 165.312 17.1289C163.971 17.0247 162.135 16.9531 159.805 16.9141L148.945 16.7578C146.263 16.7188 144.108 16.556 142.48 16.2695C140.853 15.9831 139.622 15.5339 138.789 14.9219C137.956 14.2969 137.396 13.4635 137.109 12.4219C136.836 11.3802 136.699 10.0781 136.699 8.51562C136.699 6.8099 136.888 5.40365 137.266 4.29688C137.656 3.1901 138.353 2.32422 139.355 1.69922C140.371 1.07422 141.803 0.638021 143.652 0.390625C145.501 0.130208 147.891 0 150.82 0H159.18C161.836 0 164.049 0.0846354 165.82 0.253906C167.591 0.423177 168.997 0.813802 170.039 1.42578C171.081 2.03776 171.823 2.98828 172.266 4.27734C172.721 5.56641 172.949 7.33724 172.949 9.58984H169.199C169.199 7.84505 169.03 6.52995 168.691 5.64453C168.366 4.74609 167.819 4.13411 167.051 3.80859C166.296 3.48307 165.273 3.30729 163.984 3.28125C162.695 3.25521 161.094 3.24219 159.18 3.24219H151.016C148.685 3.24219 146.816 3.28776 145.41 3.37891C144.017 3.47005 142.962 3.67839 142.246 4.00391C141.53 4.32943 141.048 4.85026 140.801 5.56641C140.566 6.28255 140.449 7.26562 140.449 8.51562C140.449 9.57031 140.534 10.4167 140.703 11.0547C140.872 11.6927 141.25 12.181 141.836 12.5195C142.435 12.8451 143.353 13.0729 144.59 13.2031C145.827 13.3203 147.513 13.3919 149.648 13.418L161.289 13.5742C164.023 13.6133 166.204 13.776 167.832 14.0625C169.473 14.3359 170.697 14.7852 171.504 15.4102C172.324 16.0352 172.865 16.8815 173.125 17.9492C173.398 19.0039 173.535 20.3385 173.535 21.9531C173.535 23.7109 173.366 25.1888 173.027 26.3867C172.702 27.5716 172.064 28.5221 171.113 29.2383C170.163 29.9544 168.789 30.4688 166.992 30.7812C165.195 31.0938 162.832 31.25 159.902 31.25H150.762C148.092 31.25 145.853 31.1328 144.043 30.8984C142.233 30.6641 140.788 30.1953 139.707 29.4922C138.639 28.776 137.871 27.7148 137.402 26.3086C136.934 24.9023 136.699 23.0273 136.699 20.6836H140.449C140.449 22.5195 140.599 23.9388 140.898 24.9414C141.198 25.944 141.719 26.6667 142.461 27.1094C143.216 27.5391 144.264 27.7995 145.605 27.8906C146.96 27.9688 148.678 28.0078 150.762 28.0078H159.707C162.038 28.0078 163.88 27.9362 165.234 27.793C166.589 27.6367 167.591 27.3503 168.242 26.9336C168.893 26.5039 169.31 25.8919 169.492 25.0977C169.688 24.3034 169.785 23.2552 169.785 21.9531Z" fill="white"/>
</svg>
