<svg width="603" height="33" viewBox="0 0 603 33" fill="none" xmlns="http://www.w3.org/2000/svg">
<rect width="603" height="33" fill="#1E1E1E"/>
<path d="M0 16.7969V16.0156C0 13.3594 0.130208 11.1328 0.390625 9.33594C0.651042 7.52604 1.10026 6.05469 1.73828 4.92188C2.3763 3.78906 3.24219 2.92318 4.33594 2.32422C5.44271 1.72526 6.82943 1.32161 8.49609 1.11328C10.1628 0.891927 12.168 0.78125 14.5117 0.78125H22.3828C25.0651 0.78125 27.3242 0.911458 29.1602 1.17188C31.0091 1.41927 32.4935 1.92057 33.6133 2.67578C34.7461 3.41797 35.5664 4.51823 36.0742 5.97656C36.582 7.42188 36.8359 9.34245 36.8359 11.7383H33.0859C33.0859 9.85026 32.9167 8.38542 32.5781 7.34375C32.2396 6.28906 31.6667 5.52734 30.8594 5.05859C30.0651 4.58984 28.9779 4.30339 27.5977 4.19922C26.2174 4.08203 24.4792 4.02344 22.3828 4.02344H14.5117C12.6497 4.02344 11.0807 4.08203 9.80469 4.19922C8.52865 4.30339 7.48698 4.55729 6.67969 4.96094C5.88542 5.35156 5.27344 5.97656 4.84375 6.83594C4.42708 7.69531 4.14062 8.86719 3.98438 10.3516C3.82812 11.8359 3.75 13.724 3.75 16.0156V16.7969C3.75 19.0104 3.82812 20.8464 3.98438 22.3047C4.14062 23.763 4.42708 24.9284 4.84375 25.8008C5.27344 26.6732 5.88542 27.3242 6.67969 27.7539C7.48698 28.1836 8.52865 28.4635 9.80469 28.5938C11.0807 28.724 12.6497 28.7891 14.5117 28.7891H22.3828C24.4792 28.7891 26.2174 28.7435 27.5977 28.6523C28.9779 28.5612 30.0651 28.2943 30.8594 27.8516C31.6667 27.4089 32.2396 26.6732 32.5781 25.6445C32.9167 24.6029 33.0859 23.1445 33.0859 21.2695H36.8359C36.8359 23.6654 36.582 25.5794 36.0742 27.0117C35.5664 28.444 34.7461 29.5247 33.6133 30.2539C32.4935 30.9701 31.0091 31.4453 29.1602 31.6797C27.3242 31.9141 25.0651 32.0312 22.3828 32.0312H14.5117C11.582 32.0312 9.17318 31.8294 7.28516 31.4258C5.39714 31.0352 3.91927 30.306 2.85156 29.2383C1.79688 28.1706 1.05469 26.6341 0.625 24.6289C0.208333 22.6237 0 20.013 0 16.7969ZM41.9922 31.4062V1.40625H45.7422V11.8945C46.3021 11.1393 46.9922 10.5078 47.8125 10C48.6458 9.49219 49.7526 9.11458 51.1328 8.86719C52.526 8.60677 54.349 8.47656 56.6016 8.47656C59.5443 8.47656 61.862 8.76302 63.5547 9.33594C65.2604 9.90885 66.4714 10.931 67.1875 12.4023C67.9036 13.8737 68.2617 15.957 68.2617 18.6523V31.4062H64.4922V18.6523C64.4922 17.1159 64.362 15.8789 64.1016 14.9414C63.8411 14.0039 63.3919 13.2943 62.7539 12.8125C62.1289 12.3307 61.263 12.0117 60.1562 11.8555C59.0495 11.6862 57.6432 11.6016 55.9375 11.6016C53.3333 11.6016 51.2891 11.8164 49.8047 12.2461C48.3203 12.6758 47.2721 13.3529 46.6602 14.2773C46.0482 15.1888 45.7422 16.3802 45.7422 17.8516V31.4062H41.9922ZM73.6328 31.4062V8.90625H77.3828V12.0117C77.7995 11.3477 78.2161 10.7943 78.6328 10.3516C79.0625 9.90885 79.6159 9.55729 80.293 9.29688C80.9831 9.03646 81.9141 8.85417 83.0859 8.75C84.2578 8.63281 85.8008 8.57422 87.7148 8.57422V11.7188C85.1367 11.7188 83.138 11.8099 81.7188 11.9922C80.3125 12.1745 79.3034 12.487 78.6914 12.9297C78.0794 13.3594 77.7083 13.9583 77.5781 14.7266C77.4479 15.4948 77.3828 16.4714 77.3828 17.6562V31.4062H73.6328ZM92.5 31.4062V10.1562H96.25V31.4062H92.5ZM92.5 5.15625V1.40625H96.25V5.15625H92.5ZM113.965 31.8359C111.23 31.8359 109.03 31.7448 107.363 31.5625C105.71 31.3802 104.453 31.0417 103.594 30.5469C102.747 30.0521 102.174 29.349 101.875 28.4375C101.589 27.526 101.445 26.3411 101.445 24.8828H105.039C105.039 25.7031 105.098 26.3672 105.215 26.875C105.332 27.3698 105.664 27.7539 106.211 28.0273C106.758 28.2878 107.643 28.4701 108.867 28.5742C110.104 28.6654 111.836 28.7109 114.062 28.7109C116.419 28.7109 118.249 28.6654 119.551 28.5742C120.866 28.4701 121.81 28.2878 122.383 28.0273C122.956 27.7539 123.301 27.3633 123.418 26.8555C123.548 26.3477 123.613 25.6771 123.613 24.8438C123.613 23.8281 123.522 23.0664 123.34 22.5586C123.158 22.0508 122.728 21.7122 122.051 21.543C121.374 21.3607 120.293 21.263 118.809 21.25L109.863 21.1523C107.559 21.1263 105.801 20.931 104.59 20.5664C103.379 20.2018 102.552 19.5638 102.109 18.6523C101.667 17.7279 101.445 16.4193 101.445 14.7266C101.445 13.151 101.686 11.9336 102.168 11.0742C102.663 10.2148 103.431 9.60286 104.473 9.23828C105.514 8.8737 106.868 8.65885 108.535 8.59375C110.202 8.51562 112.214 8.47656 114.57 8.47656C117.344 8.47656 119.544 8.5612 121.172 8.73047C122.812 8.89974 124.036 9.21875 124.844 9.6875C125.664 10.1562 126.198 10.8398 126.445 11.7383C126.706 12.6237 126.836 13.7826 126.836 15.2148H123.242C123.242 14.3685 123.184 13.7044 123.066 13.2227C122.949 12.7279 122.63 12.3698 122.109 12.1484C121.602 11.9141 120.768 11.7643 119.609 11.6992C118.464 11.6341 116.849 11.6016 114.766 11.6016C112.396 11.6016 110.553 11.6276 109.238 11.6797C107.923 11.7318 106.973 11.8555 106.387 12.0508C105.801 12.2461 105.443 12.5586 105.312 12.9883C105.182 13.4049 105.117 13.9844 105.117 14.7266C105.117 15.4818 105.156 16.0807 105.234 16.5234C105.326 16.9531 105.553 17.2786 105.918 17.5C106.283 17.7214 106.875 17.8711 107.695 17.9492C108.529 18.0143 109.688 18.0534 111.172 18.0664L118.887 18.1445C121.204 18.1706 122.962 18.3659 124.16 18.7305C125.371 19.082 126.191 19.7396 126.621 20.7031C127.064 21.6536 127.285 23.0339 127.285 24.8438C127.285 26.4714 127.044 27.7539 126.562 28.6914C126.094 29.6289 125.339 30.3255 124.297 30.7812C123.255 31.224 121.882 31.5104 120.176 31.6406C118.483 31.7708 116.413 31.8359 113.965 31.8359ZM142.422 31.4062L159.922 1.40625H164.922L182.422 31.4062H178.047L174.297 24.5312H150.547L146.797 31.4062H142.422ZM152.422 21.4062H172.422L162.422 3.90625L152.422 21.4062ZM198.887 31.8359C196.152 31.8359 193.952 31.7448 192.285 31.5625C190.632 31.3802 189.375 31.0417 188.516 30.5469C187.669 30.0521 187.096 29.349 186.797 28.4375C186.51 27.526 186.367 26.3411 186.367 24.8828H189.961C189.961 25.7031 190.02 26.3672 190.137 26.875C190.254 27.3698 190.586 27.7539 191.133 28.0273C191.68 28.2878 192.565 28.4701 193.789 28.5742C195.026 28.6654 196.758 28.7109 198.984 28.7109C201.341 28.7109 203.171 28.6654 204.473 28.5742C205.788 28.4701 206.732 28.2878 207.305 28.0273C207.878 27.7539 208.223 27.3633 208.34 26.8555C208.47 26.3477 208.535 25.6771 208.535 24.8438C208.535 23.8281 208.444 23.0664 208.262 22.5586C208.079 22.0508 207.65 21.7122 206.973 21.543C206.296 21.3607 205.215 21.263 203.73 21.25L194.785 21.1523C192.48 21.1263 190.723 20.931 189.512 20.5664C188.301 20.2018 187.474 19.5638 187.031 18.6523C186.589 17.7279 186.367 16.4193 186.367 14.7266C186.367 13.151 186.608 11.9336 187.09 11.0742C187.585 10.2148 188.353 9.60286 189.395 9.23828C190.436 8.8737 191.79 8.65885 193.457 8.59375C195.124 8.51562 197.135 8.47656 199.492 8.47656C202.266 8.47656 204.466 8.5612 206.094 8.73047C207.734 8.89974 208.958 9.21875 209.766 9.6875C210.586 10.1562 211.12 10.8398 211.367 11.7383C211.628 12.6237 211.758 13.7826 211.758 15.2148H208.164C208.164 14.3685 208.105 13.7044 207.988 13.2227C207.871 12.7279 207.552 12.3698 207.031 12.1484C206.523 11.9141 205.69 11.7643 204.531 11.6992C203.385 11.6341 201.771 11.6016 199.688 11.6016C197.318 11.6016 195.475 11.6276 194.16 11.6797C192.845 11.7318 191.895 11.8555 191.309 12.0508C190.723 12.2461 190.365 12.5586 190.234 12.9883C190.104 13.4049 190.039 13.9844 190.039 14.7266C190.039 15.4818 190.078 16.0807 190.156 16.5234C190.247 16.9531 190.475 17.2786 190.84 17.5C191.204 17.7214 191.797 17.8711 192.617 17.9492C193.451 18.0143 194.609 18.0534 196.094 18.0664L203.809 18.1445C206.126 18.1706 207.884 18.3659 209.082 18.7305C210.293 19.082 211.113 19.7396 211.543 20.7031C211.986 21.6536 212.207 23.0339 212.207 24.8438C212.207 26.4714 211.966 27.7539 211.484 28.6914C211.016 29.6289 210.26 30.3255 209.219 30.7812C208.177 31.224 206.803 31.5104 205.098 31.6406C203.405 31.7708 201.335 31.8359 198.887 31.8359ZM228.789 31.8359C225.846 31.8359 223.529 31.5169 221.836 30.8789C220.143 30.2279 218.939 29.1471 218.223 27.6367C217.507 26.1133 217.148 24.0365 217.148 21.4062V8.90625H220.918V21.4062C220.918 22.8906 221.035 24.1146 221.27 25.0781C221.517 26.0286 221.947 26.7708 222.559 27.3047C223.171 27.8255 224.03 28.1901 225.137 28.3984C226.257 28.6068 227.695 28.7109 229.453 28.7109C232.057 28.7109 234.102 28.4961 235.586 28.0664C237.07 27.6367 238.118 26.9661 238.73 26.0547C239.355 25.1302 239.668 23.9323 239.668 22.4609V8.90625H243.418V31.4062H239.668V28.418C239.121 29.1732 238.431 29.8047 237.598 30.3125C236.764 30.8203 235.651 31.1979 234.258 31.4453C232.865 31.7057 231.042 31.8359 228.789 31.8359ZM248.594 31.4062V8.90625H252.344V11.6992C252.904 10.944 253.574 10.3125 254.355 9.80469C255.137 9.29688 256.133 8.91927 257.344 8.67188C258.568 8.41146 260.13 8.28125 262.031 8.28125C264.388 8.28125 266.309 8.60026 267.793 9.23828C269.277 9.8763 270.371 10.9766 271.074 12.5391C271.712 11.5495 272.48 10.7422 273.379 10.1172C274.277 9.47917 275.404 9.01693 276.758 8.73047C278.125 8.43099 279.805 8.28125 281.797 8.28125C284.167 8.28125 286.094 8.60677 287.578 9.25781C289.062 9.89583 290.15 10.9896 290.84 12.5391C291.543 14.0885 291.895 16.2109 291.895 18.9062V31.4062H288.145V18.9062C288.145 16.849 287.93 15.2865 287.5 14.2188C287.07 13.138 286.354 12.4023 285.352 12.0117C284.362 11.6081 283.021 11.4062 281.328 11.4062C278.008 11.4062 275.638 11.8945 274.219 12.8711C272.812 13.8477 272.109 15.4427 272.109 17.6562V17.6367C272.122 18.0404 272.129 18.4635 272.129 18.9062V31.4062H268.379V18.9062C268.379 16.849 268.164 15.2865 267.734 14.2188C267.305 13.138 266.589 12.4023 265.586 12.0117C264.596 11.6081 263.255 11.4062 261.562 11.4062C258.242 11.4062 255.872 11.8945 254.453 12.8711C253.047 13.8477 252.344 15.4427 252.344 17.6562V31.4062H248.594ZM308.711 31.8359C306.016 31.8359 303.789 31.6927 302.031 31.4062C300.286 31.1328 298.984 30.5208 298.125 29.5703C297.279 28.6198 296.855 27.1419 296.855 25.1367C296.855 23.0924 297.253 21.5951 298.047 20.6445C298.854 19.681 300.124 19.056 301.855 18.7695C303.6 18.4831 305.885 18.3398 308.711 18.3398C311.003 18.3398 312.923 18.3919 314.473 18.4961C316.022 18.6003 317.409 18.7826 318.633 19.043C318.607 17.3112 318.49 15.9505 318.281 14.9609C318.073 13.9583 317.682 13.2161 317.109 12.7344C316.536 12.2526 315.697 11.9466 314.59 11.8164C313.496 11.6732 312.038 11.6016 310.215 11.6016C308.132 11.6016 306.497 11.6471 305.312 11.7383C304.141 11.8294 303.288 11.9922 302.754 12.2266C302.22 12.4609 301.882 12.7995 301.738 13.2422C301.608 13.6849 301.543 14.2578 301.543 14.9609H297.793C297.793 13.5547 297.982 12.4219 298.359 11.5625C298.75 10.7031 299.408 10.0521 300.332 9.60938C301.257 9.16667 302.52 8.86719 304.121 8.71094C305.736 8.55469 307.767 8.47656 310.215 8.47656C312.845 8.47656 314.961 8.64583 316.562 8.98438C318.177 9.32292 319.401 9.9349 320.234 10.8203C321.081 11.6927 321.647 12.9167 321.934 14.4922C322.233 16.0677 322.383 18.099 322.383 20.5859V31.4062H318.633V29.8633C318.19 30.332 317.578 30.7096 316.797 30.9961C316.016 31.2826 314.974 31.4909 313.672 31.6211C312.383 31.7643 310.729 31.8359 308.711 31.8359ZM308.711 28.7891C310.938 28.7891 312.715 28.763 314.043 28.7109C315.371 28.6589 316.361 28.5156 317.012 28.2812C317.676 28.0469 318.112 27.6693 318.32 27.1484C318.529 26.6276 318.633 25.8984 318.633 24.9609V21.5039L308.711 21.3867C306.953 21.3607 305.534 21.3867 304.453 21.4648C303.385 21.5299 302.572 21.6862 302.012 21.9336C301.452 22.168 301.074 22.5456 300.879 23.0664C300.697 23.5742 300.605 24.2643 300.605 25.1367C300.605 25.9831 300.697 26.6536 300.879 27.1484C301.074 27.6432 301.452 28.0078 302.012 28.2422C302.572 28.4766 303.385 28.6263 304.453 28.6914C305.534 28.7565 306.953 28.7891 308.711 28.7891ZM340.449 31.8359C337.936 31.8359 335.801 31.7057 334.043 31.4453C332.285 31.1979 330.866 30.6836 329.785 29.9023C328.704 29.1081 327.917 27.9232 327.422 26.3477C326.927 24.7721 326.68 22.6693 326.68 20.0391C326.68 17.487 326.927 15.4427 327.422 13.9062C327.917 12.3698 328.704 11.2109 329.785 10.4297C330.866 9.64844 332.285 9.1276 334.043 8.86719C335.801 8.60677 337.936 8.47656 340.449 8.47656C342.858 8.47656 344.889 8.65885 346.543 9.02344C348.21 9.38802 349.518 10.2018 350.469 11.4648V1.40625H354.219V31.4062H350.469V28.8281C349.518 30.1042 348.21 30.9245 346.543 31.2891C344.889 31.6536 342.858 31.8359 340.449 31.8359ZM350.469 20.0391C350.469 18.1771 350.339 16.6862 350.078 15.5664C349.818 14.4466 349.336 13.6068 348.633 13.0469C347.93 12.474 346.921 12.0898 345.605 11.8945C344.29 11.6992 342.572 11.6016 340.449 11.6016C338.132 11.6016 336.296 11.6992 334.941 11.8945C333.587 12.0898 332.591 12.474 331.953 13.0469C331.315 13.6068 330.898 14.4466 330.703 15.5664C330.521 16.6862 330.43 18.1771 330.43 20.0391C330.43 21.9661 330.521 23.5091 330.703 24.668C330.898 25.8268 331.315 26.6992 331.953 27.2852C332.591 27.8581 333.587 28.2422 334.941 28.4375C336.296 28.6198 338.132 28.7109 340.449 28.7109C342.572 28.7109 344.29 28.6198 345.605 28.4375C346.921 28.2422 347.93 27.8581 348.633 27.2852C349.336 26.6992 349.818 25.8268 350.078 24.668C350.339 23.5091 350.469 21.9661 350.469 20.0391ZM370.859 31.8359C367.917 31.8359 365.599 31.5169 363.906 30.8789C362.214 30.2279 361.009 29.1471 360.293 27.6367C359.577 26.1133 359.219 24.0365 359.219 21.4062V8.90625H362.988V21.4062C362.988 22.8906 363.105 24.1146 363.34 25.0781C363.587 26.0286 364.017 26.7708 364.629 27.3047C365.241 27.8255 366.1 28.1901 367.207 28.3984C368.327 28.6068 369.766 28.7109 371.523 28.7109C374.128 28.7109 376.172 28.4961 377.656 28.0664C379.141 27.6367 380.189 26.9661 380.801 26.0547C381.426 25.1302 381.738 23.9323 381.738 22.4609V8.90625H385.488V31.4062H381.738V28.418C381.191 29.1732 380.501 29.8047 379.668 30.3125C378.835 30.8203 377.721 31.1979 376.328 31.4453C374.935 31.7057 373.112 31.8359 370.859 31.8359ZM403.281 31.4062V1.40625H425.547C428.477 1.40625 430.885 1.58203 432.773 1.93359C434.661 2.28516 436.133 2.96875 437.188 3.98438C438.255 4.98698 438.997 6.45182 439.414 8.37891C439.844 10.306 440.059 12.8516 440.059 16.0156V16.7969C440.059 19.8568 439.844 22.3503 439.414 24.2773C438.997 26.1914 438.255 27.6693 437.188 28.7109C436.133 29.7396 434.661 30.4492 432.773 30.8398C430.885 31.2174 428.477 31.4062 425.547 31.4062H403.281ZM407.031 28.1641H425.547C427.878 28.1641 429.753 28.0534 431.172 27.832C432.591 27.6107 433.672 27.1289 434.414 26.3867C435.156 25.6445 435.658 24.5117 435.918 22.9883C436.178 21.4648 436.309 19.401 436.309 16.7969V16.0156C436.309 13.8542 436.23 12.0703 436.074 10.6641C435.918 9.25781 435.625 8.15104 435.195 7.34375C434.779 6.52344 434.167 5.92448 433.359 5.54688C432.565 5.15625 431.53 4.90885 430.254 4.80469C428.978 4.70052 427.409 4.64844 425.547 4.64844H407.031V28.1641ZM458.223 31.8359C455.71 31.8359 453.574 31.7057 451.816 31.4453C450.059 31.1979 448.639 30.6836 447.559 29.9023C446.478 29.1081 445.69 27.9232 445.195 26.3477C444.701 24.7721 444.453 22.6693 444.453 20.0391C444.453 17.487 444.701 15.4427 445.195 13.9062C445.69 12.3698 446.478 11.2109 447.559 10.4297C448.639 9.64844 450.059 9.1276 451.816 8.86719C453.574 8.60677 455.71 8.47656 458.223 8.47656C460.749 8.47656 462.884 8.60677 464.629 8.86719C466.387 9.1276 467.806 9.64844 468.887 10.4297C469.967 11.2109 470.755 12.3698 471.25 13.9062C471.745 15.4427 471.992 17.487 471.992 20.0391C471.992 22.6693 471.745 24.7721 471.25 26.3477C470.755 27.9232 469.967 29.1081 468.887 29.9023C467.806 30.6836 466.387 31.1979 464.629 31.4453C462.884 31.7057 460.749 31.8359 458.223 31.8359ZM468.242 20.0391C468.242 18.1771 468.145 16.6862 467.949 15.5664C467.767 14.4466 467.357 13.6068 466.719 13.0469C466.081 12.474 465.085 12.0898 463.73 11.8945C462.389 11.6992 460.553 11.6016 458.223 11.6016C455.905 11.6016 454.069 11.6992 452.715 11.8945C451.361 12.0898 450.365 12.474 449.727 13.0469C449.089 13.6068 448.672 14.4466 448.477 15.5664C448.294 16.6862 448.203 18.1771 448.203 20.0391C448.203 21.9661 448.294 23.5091 448.477 24.668C448.672 25.8268 449.089 26.6992 449.727 27.2852C450.365 27.8581 451.361 28.2422 452.715 28.4375C454.069 28.6198 455.905 28.7109 458.223 28.7109C460.553 28.7109 462.389 28.6198 463.73 28.4375C465.085 28.2422 466.081 27.8581 466.719 27.2852C467.357 26.6992 467.767 25.8268 467.949 24.668C468.145 23.5091 468.242 21.9661 468.242 20.0391ZM476.445 31.4062V8.90625H480.195V11.6992C480.755 10.944 481.426 10.3125 482.207 9.80469C482.988 9.29688 483.984 8.91927 485.195 8.67188C486.419 8.41146 487.982 8.28125 489.883 8.28125C492.24 8.28125 494.16 8.60026 495.645 9.23828C497.129 9.8763 498.223 10.9766 498.926 12.5391C499.564 11.5495 500.332 10.7422 501.23 10.1172C502.129 9.47917 503.255 9.01693 504.609 8.73047C505.977 8.43099 507.656 8.28125 509.648 8.28125C512.018 8.28125 513.945 8.60677 515.43 9.25781C516.914 9.89583 518.001 10.9896 518.691 12.5391C519.395 14.0885 519.746 16.2109 519.746 18.9062V31.4062H515.996V18.9062C515.996 16.849 515.781 15.2865 515.352 14.2188C514.922 13.138 514.206 12.4023 513.203 12.0117C512.214 11.6081 510.872 11.4062 509.18 11.4062C505.859 11.4062 503.49 11.8945 502.07 12.8711C500.664 13.8477 499.961 15.4427 499.961 17.6562V17.6367C499.974 18.0404 499.98 18.4635 499.98 18.9062V31.4062H496.23V18.9062C496.23 16.849 496.016 15.2865 495.586 14.2188C495.156 13.138 494.44 12.4023 493.438 12.0117C492.448 11.6081 491.107 11.4062 489.414 11.4062C486.094 11.4062 483.724 11.8945 482.305 12.8711C480.898 13.8477 480.195 15.4427 480.195 17.6562V31.4062H476.445ZM528.438 31.4062V11.7578H524.688V8.90625H528.438V7.92969C528.438 5.79427 528.783 4.15365 529.473 3.00781C530.176 1.86198 531.263 1.07422 532.734 0.644531C534.219 0.214844 536.126 0 538.457 0H542.812V3.04688H538.438C536.576 3.04688 535.202 3.16406 534.316 3.39844C533.431 3.63281 532.852 4.10156 532.578 4.80469C532.318 5.49479 532.188 6.53646 532.188 7.92969V8.90625H542.812V11.7578H532.188V31.4062H528.438ZM571.074 24.7266C571.074 26.4062 570.82 27.7279 570.312 28.6914C569.818 29.6549 569.056 30.3581 568.027 30.8008C566.999 31.2435 565.684 31.5234 564.082 31.6406C562.493 31.7708 560.599 31.8359 558.398 31.8359C555.885 31.8359 553.75 31.7057 551.992 31.4453C550.247 31.1979 548.835 30.6836 547.754 29.9023C546.686 29.1081 545.905 27.9232 545.41 26.3477C544.928 24.7721 544.688 22.6693 544.688 20.0391C544.688 17.487 544.922 15.4427 545.391 13.9062C545.872 12.3698 546.647 11.2109 547.715 10.4297C548.783 9.64844 550.182 9.1276 551.914 8.86719C553.659 8.60677 555.788 8.47656 558.301 8.47656C561.178 8.47656 563.561 8.67839 565.449 9.08203C567.337 9.48568 568.743 10.2539 569.668 11.3867C570.605 12.5195 571.074 14.1797 571.074 16.3672V21.1914H548.457C548.47 22.8581 548.587 24.1927 548.809 25.1953C549.03 26.1979 549.473 26.9531 550.137 27.4609C550.801 27.9688 551.79 28.3073 553.105 28.4766C554.434 28.6328 556.198 28.7109 558.398 28.7109C560.378 28.7109 561.973 28.6719 563.184 28.5938C564.408 28.5156 565.332 28.3464 565.957 28.0859C566.595 27.8125 567.025 27.4089 567.246 26.875C567.467 26.3411 567.578 25.625 567.578 24.7266H571.074ZM558.301 11.6016C556.178 11.6016 554.466 11.6797 553.164 11.8359C551.875 11.9922 550.892 12.2982 550.215 12.7539C549.538 13.1966 549.076 13.8607 548.828 14.7461C548.594 15.6315 548.47 16.7969 548.457 18.2422H567.48V16.3672C567.48 15.4297 567.37 14.6549 567.148 14.043C566.94 13.418 566.523 12.9297 565.898 12.5781C565.273 12.2135 564.349 11.9596 563.125 11.8164C561.914 11.6732 560.306 11.6016 558.301 11.6016ZM576.016 31.4062V1.40625H579.766V11.8945C580.326 11.1393 581.016 10.5078 581.836 10C582.669 9.49219 583.776 9.11458 585.156 8.86719C586.549 8.60677 588.372 8.47656 590.625 8.47656C593.568 8.47656 595.885 8.76302 597.578 9.33594C599.284 9.90885 600.495 10.931 601.211 12.4023C601.927 13.8737 602.285 15.957 602.285 18.6523V31.4062H598.516V18.6523C598.516 17.1159 598.385 15.8789 598.125 14.9414C597.865 14.0039 597.415 13.2943 596.777 12.8125C596.152 12.3307 595.286 12.0117 594.18 11.8555C593.073 11.6862 591.667 11.6016 589.961 11.6016C587.357 11.6016 585.312 11.8164 583.828 12.2461C582.344 12.6758 581.296 13.3529 580.684 14.2773C580.072 15.1888 579.766 16.3802 579.766 17.8516V31.4062H576.016Z" fill="white"/>
</svg>
