<svg width="459" height="102" viewBox="0 0 459 102" fill="none" xmlns="http://www.w3.org/2000/svg">
<rect width="459" height="102" fill="#1E1E1E"/>
<path d="M49.875 99.0625C56.2083 99.0625 62.6875 97.625 69.3125 94.75C75.9792 91.8333 81.25 87.5625 85.125 81.9375C85.125 81.3958 84.875 80.9375 84.375 80.5625C83.9167 80.1875 83.3958 80 82.8125 80C76.5625 87.5833 67.375 91.375 55.25 91.375C42.4583 91.375 32.7917 87.5208 26.25 79.8125C19.75 72.0625 16.5 62.4375 16.5 50.9375C16.5 45.7292 17.0625 40.7083 18.1875 35.875C19.3542 31 21.1458 26.3542 23.5625 21.9375C26.0208 17.4792 29.5 13.875 34 11.125C38.5417 8.375 43.8333 7 49.875 7C54 7 57.8125 7.64583 61.3125 8.9375C64.8125 10.2292 67.6875 11.75 69.9375 13.5C72.1875 15.25 74.375 17.6042 76.5 20.5625C78.6667 23.4792 80.2917 26.0208 81.375 28.1875C82.5 30.3125 83.8333 33.0208 85.375 36.3125C86.625 36.1458 87.3958 35.6875 87.6875 34.9375C84.6042 22.5625 79.9375 14.0833 73.6875 9.5C67.4792 4.875 59.5417 2.5625 49.875 2.5625C45.9583 2.5625 41.9583 3.04167 37.875 4C33.7917 4.91667 29.5833 6.58333 25.25 9C20.9583 11.375 17.1667 14.3333 13.875 17.875C10.5833 21.375 7.875 26 5.75 31.75C3.625 37.4583 2.5625 43.8542 2.5625 50.9375C2.5625 58.0208 3.625 64.4167 5.75 70.125C7.875 75.8333 10.5833 80.4375 13.875 83.9375C17.1667 87.4375 20.9583 90.375 25.25 92.75C29.5833 95.0833 33.7917 96.7083 37.875 97.625C41.9583 98.5833 45.9583 99.0625 49.875 99.0625ZM83.8125 39.125C82.0208 35.125 80.375 31.8333 78.875 29.25C77.375 26.625 75.375 23.7083 72.875 20.5C70.375 17.25 67.3958 14.7292 63.9375 12.9375C60.4792 11.1458 56.6042 10.0625 52.3125 9.6875C47.5625 10.0625 43.4167 11.5833 39.875 14.25C36.3333 16.875 33.5833 20.25 31.625 24.375C29.7083 28.5 28.2917 32.7917 27.375 37.25C26.5 41.6667 26.0625 46.2292 26.0625 50.9375C26.0625 61.4375 28.7083 70.25 34 77.375C39.2917 84.5 47.1875 88.3125 57.6875 88.8125C67.8542 88.3125 75.8333 84.5208 81.625 77.4375C83.25 77.4375 84.6667 77.9792 85.875 79.0625C87.0833 80.1042 87.6875 81.3542 87.6875 82.8125C83.4792 88.9375 77.7917 93.6042 70.625 96.8125C63.4583 100.021 56.5417 101.625 49.875 101.625C45.7083 101.625 41.4792 101.125 37.1875 100.125C32.9375 99.1667 28.5208 97.4583 23.9375 95C19.3958 92.5 15.375 89.3958 11.875 85.6875C8.375 81.9792 5.52083 77.125 3.3125 71.125C1.10417 65.0833 0 58.3542 0 50.9375C0 43.1875 1.14583 36.2708 3.4375 30.1875C5.72917 24.0625 8.66667 19.1667 12.25 15.5C15.8333 11.8333 20.0208 8.79167 24.8125 6.375C29.6042 3.91667 34.25 2.25 38.75 1.375C43.2917 0.458333 47.8542 0 52.4375 0C58.6875 0 65.4792 0.833333 72.8125 2.5C80.1458 4.16667 85.3958 5.20833 88.5625 5.625C87.1875 11 86.6458 15.7292 86.9375 19.8125C87.2292 23.8542 88.4167 28.8125 90.5 34.6875C89.2917 37.1458 87.0625 38.625 83.8125 39.125ZM174.75 87.9375C174.75 91.0208 169.938 93.0208 160.312 93.9375C159.979 94.6042 159.979 95.5833 160.312 96.875C167.396 96.625 174.646 96.5 182.062 96.5C190.938 96.5 199.479 96.625 207.688 96.875C208.021 96.125 208.021 95.1458 207.688 93.9375C193.854 93.1042 186.896 91.1042 186.812 87.9375C186.354 77.6042 186.125 65.2292 186.125 50.8125C186.125 36.3125 186.354 23.8958 186.812 13.5625C186.896 10.3958 193.854 8.39583 207.688 7.5625C208.104 6.52083 208.104 5.54167 207.688 4.625C196.729 4.95833 188.188 5.125 182.062 5.125C176.938 5.125 169.688 4.95833 160.312 4.625C160.062 5.625 160.062 6.60417 160.312 7.5625C169.854 8.47917 174.667 10.4792 174.75 13.5625C175 21.2292 175.208 32.7917 175.375 48.25C167.708 48.5 160.458 48.625 153.625 48.625C142.208 48.625 133.938 48.5417 128.812 48.375C128.812 34.375 129.062 22.7708 129.562 13.5625C129.646 10.3958 136.604 8.39583 150.438 7.5625C150.688 6.77083 150.688 5.79167 150.438 4.625C139.521 4.95833 130.979 5.125 124.812 5.125C119.729 5.125 112.479 4.95833 103.062 4.625C102.729 5.375 102.729 6.35417 103.062 7.5625C112.646 8.47917 117.479 10.4792 117.562 13.5625C117.979 23.3542 118.188 35 118.188 48.5C118.188 61.7083 117.938 74.8542 117.438 87.9375C117.354 91.0208 112.521 93.0208 102.938 93.9375C102.604 94.6042 102.604 95.5833 102.938 96.875C110.021 96.625 117.271 96.5 124.688 96.5C133.562 96.5 142.104 96.625 150.312 96.875C150.646 96.2083 150.646 95.2292 150.312 93.9375C136.479 93.1042 129.521 91.1042 129.438 87.9375C129.021 75.3958 128.812 63.6667 128.812 52.75C139.062 52.5417 147.333 52.4375 153.625 52.4375C160.458 52.4375 167.708 52.5833 175.375 52.875C175.292 62.1667 175.083 73.8542 174.75 87.9375ZM172.188 87.9375C172.521 71.3542 172.729 60.8958 172.812 56.5625C164.646 56.3958 158.25 56.3125 153.625 56.3125C150.042 56.3125 146.688 56.3333 143.562 56.375C140.479 56.4167 138.771 56.4375 138.438 56.4375C138.438 66.0625 138.646 76.5208 139.062 87.8125C139.062 88.0625 139.146 88.3125 139.312 88.5625C139.479 88.8125 139.771 89.0208 140.188 89.1875C140.604 89.3542 141.021 89.5417 141.438 89.75C141.896 89.9167 142.458 90.0833 143.125 90.25C143.833 90.4167 144.458 90.5625 145 90.6875C145.542 90.8125 146.229 90.9375 147.062 91.0625C147.938 91.1875 148.625 91.2917 149.125 91.375C149.667 91.4583 150.375 91.5417 151.25 91.625C152.167 91.7083 152.792 91.7917 153.125 91.875C153.792 94.2083 153.667 96.7708 152.75 99.5625C137.375 99.2292 128.021 99.0625 124.688 99.0625C122.479 99.0625 114.646 99.2292 101.188 99.5625C100.146 96.6875 100.146 94 101.188 91.5C110.229 90.5833 114.792 89.3542 114.875 87.8125C115.375 74.7292 115.625 61.625 115.625 48.5C115.625 35.0833 115.417 23.4792 115 13.6875C114.917 12.1458 110.271 10.9167 101.062 10C100.354 7.33333 100.438 4.64583 101.312 1.9375C104.979 1.9375 109.938 2.04167 116.188 2.25C122.479 2.45833 126.854 2.5625 129.312 2.5625C131.104 2.5625 134.562 2.52083 139.688 2.4375C144.812 2.35417 149.25 2.3125 153 2.3125C153.75 4.6875 153.792 7.25 153.125 10C143.917 10.9167 139.271 12.1458 139.188 13.6875C138.688 25.1875 138.438 35.9375 138.438 45.9375C142.438 46.1875 147.5 46.2292 153.625 46.0625L172.812 45.8125C172.646 32.2292 172.438 21.5208 172.188 13.6875C172.104 12.1458 167.458 10.9167 158.25 10C157.5 7.08333 157.583 4.39583 158.5 1.9375C164.542 2.35417 172.729 2.5625 183.062 2.5625C185.021 2.5625 189 2.52083 195 2.4375C201.042 2.35417 206.104 2.3125 210.188 2.3125C210.979 4.6875 211.042 7.25 210.375 10C201.125 10.9167 196.458 12.1458 196.375 13.6875C195.958 24.0208 195.75 36.3958 195.75 50.8125C195.75 65.1458 195.958 77.4792 196.375 87.8125C196.458 89.3542 201.125 90.5833 210.375 91.5C211.042 94.1667 210.938 96.8542 210.062 99.5625C196.604 99.2292 188.771 99.0625 186.562 99.0625C183.229 99.0625 173.875 99.2292 158.5 99.5625C157.5 96.6875 157.5 94 158.5 91.5C167.625 90.5833 172.188 89.3958 172.188 87.9375ZM246.688 8.9375H246.812C249.396 8.77083 252.729 8.6875 256.812 8.6875C263.146 8.6875 267.979 10.6458 271.312 14.5625C274.688 18.4792 276.375 23.5625 276.375 29.8125C276.375 36.1458 274.833 41.6458 271.75 46.3125C268.708 50.9375 263.938 53.25 257.438 53.25C253.604 53.25 249.812 52.7708 246.062 51.8125C246.062 37.1458 246.271 22.8542 246.688 8.9375ZM273.812 29.8125C273.812 24.4375 272.188 19.9167 268.938 16.25C265.729 12.5833 261.479 10.9583 256.188 11.375C255.854 27.4167 255.688 40.2708 255.688 49.9375C256.521 50.1875 257.792 50.3958 259.5 50.5625C264.375 50.0208 267.979 47.7292 270.312 43.6875C272.646 39.6458 273.812 35.0208 273.812 29.8125ZM234.688 87.9375C234.604 91.0208 229.771 93.0208 220.188 93.9375C219.854 94.6042 219.854 95.5833 220.188 96.875C227.271 96.625 234.542 96.5 242 96.5C250.875 96.5 259.396 96.625 267.562 96.875C267.896 96.2083 267.896 95.2292 267.562 93.9375C253.729 93.1042 246.771 91.1042 246.688 87.9375C246.271 76.2292 246.062 65.7708 246.062 56.5625C250.771 57.5208 255.125 58 259.125 58C265.958 70.7083 274.958 83.5417 286.125 96.5C288.25 96.5 291.312 96.5208 295.312 96.5625C299.354 96.6042 302.979 96.6458 306.188 96.6875C309.438 96.7292 312.521 96.7917 315.438 96.875C315.771 96.125 315.771 95.1458 315.438 93.9375C308.604 93.4375 302.833 91.7708 298.125 88.9375C293.458 86.0625 288 80.7708 281.75 73.0625C277.5 67.6875 273.667 62.0208 270.25 56.0625C276.417 54.0208 281.271 50.625 284.812 45.875C288.354 41.125 290.125 35.7708 290.125 29.8125C290.125 22.3125 287.708 16.25 282.875 11.625C278.042 6.95833 271.354 4.625 262.812 4.625C234.646 4.95833 220.479 4.95833 220.312 4.625C220.062 5.625 220.062 6.60417 220.312 7.5625C229.896 8.47917 234.729 10.4792 234.812 13.5625C235.229 23.3542 235.438 35 235.438 48.5C235.438 61.7083 235.188 74.8542 234.688 87.9375ZM232.125 87.8125C232.625 77.3958 232.875 64.2917 232.875 48.5C232.875 35.0833 232.667 23.4792 232.25 13.6875C232.167 12.1458 227.521 10.9167 218.312 10C217.604 7.25 217.688 4.5625 218.562 1.9375C223.146 2.1875 228.125 2.3125 233.5 2.3125C238.875 2.3125 245.042 2.27083 252 2.1875C258.958 2.10417 264.062 2.0625 267.312 2.0625C277.396 2.0625 285.312 4.625 291.062 9.75C296.812 14.8333 299.688 21.5208 299.688 29.8125C299.688 35.6875 298 41.1042 294.625 46.0625C291.25 51.0208 286.708 54.7708 281 57.3125C283.833 61.9375 287.125 66.6875 290.875 71.5625C295.292 77.4375 299.625 82.1042 303.875 85.5625C308.167 89.0208 312.917 91 318.125 91.5C318.792 94.1667 318.708 96.8542 317.875 99.5625C311.917 99.3958 300.958 99.2292 285 99.0625C273.292 85.3958 264.146 72.5625 257.562 60.5625H255.688C255.688 68.3125 255.896 77.3958 256.312 87.8125C256.312 88.0625 256.417 88.3125 256.625 88.5625C256.833 88.8125 257.646 89.2083 259.062 89.75C260.479 90.2917 262.625 90.7708 265.5 91.1875C268.417 91.5625 270.042 91.7917 270.375 91.875C271.083 94.2083 270.958 96.7708 270 99.5625C254.625 99.2292 245.292 99.0625 242 99.0625C239.75 99.0625 231.896 99.2292 218.438 99.5625C217.396 96.6875 217.396 94 218.438 91.5C227.479 90.5833 232.042 89.3542 232.125 87.8125ZM350.438 87.9375C350.104 70.5208 349.938 57.375 349.938 48.5C349.938 38.25 350.146 26.6042 350.562 13.5625C350.646 10.3958 357.604 8.39583 371.438 7.5625C371.688 6.77083 371.688 5.79167 371.438 4.625C360.521 4.95833 352 5.125 345.875 5.125C340.75 5.125 333.479 4.95833 324.062 4.625C323.729 5.375 323.729 6.35417 324.062 7.5625C333.646 8.47917 338.479 10.4792 338.562 13.5625C338.979 23.3542 339.188 35 339.188 48.5C339.188 61.7083 338.938 74.8542 338.438 87.9375C338.354 91.0208 333.521 93.0208 323.938 93.9375C323.604 94.6042 323.604 95.5833 323.938 96.875C331.021 96.625 338.292 96.5 345.75 96.5C354.625 96.5 363.146 96.625 371.312 96.875C371.646 96.2083 371.646 95.2292 371.312 93.9375C357.479 93.1042 350.521 91.1042 350.438 87.9375ZM322.062 10C321.354 7.25 321.438 4.5625 322.312 1.9375C325.979 1.9375 330.938 2.04167 337.188 2.25C343.479 2.45833 347.854 2.5625 350.312 2.5625C352.104 2.5625 355.562 2.52083 360.688 2.4375C365.812 2.35417 370.25 2.3125 374 2.3125C374.792 4.6875 374.833 7.25 374.125 10C364.917 10.9167 360.271 12.1458 360.188 13.6875C359.688 24.1042 359.438 37.25 359.438 53.125C359.438 68.4583 359.646 80.0208 360.062 87.8125C360.062 88.0625 360.167 88.3125 360.375 88.5625C360.583 88.8125 360.875 89.0208 361.25 89.1875C361.667 89.3542 362.083 89.5417 362.5 89.75C362.917 89.9167 363.479 90.0833 364.188 90.25C364.938 90.4167 365.562 90.5625 366.062 90.6875C366.562 90.8125 367.229 90.9375 368.062 91.0625C368.938 91.1875 369.625 91.2917 370.125 91.375C370.667 91.4583 371.375 91.5417 372.25 91.625C373.167 91.7083 373.792 91.7917 374.125 91.875C374.833 94.2083 374.708 96.7708 373.75 99.5625C358.375 99.2292 349.042 99.0625 345.75 99.0625C343.5 99.0625 335.646 99.2292 322.188 99.5625C321.146 96.6875 321.146 94 322.188 91.5C331.229 90.5833 335.792 89.3542 335.875 87.8125C336.375 77.3958 336.625 64.2917 336.625 48.5C336.625 35.0833 336.417 23.4792 336 13.6875C335.917 12.1458 331.271 10.9167 322.062 10ZM419.562 0C425.521 0 431 0.833333 436 2.5C441 4.16667 445.5 5.25 449.5 5.75C447.292 13.5 447.208 21.8542 449.25 30.8125C447.125 32.6042 444.688 33.6458 441.938 33.9375C441.604 33.1458 441 31.5 440.125 29C439.292 26.4583 438.479 24.375 437.688 22.75C436.938 21.125 435.875 19.2708 434.5 17.1875C433.167 15.1042 431.375 13.4583 429.125 12.25C426.917 11 424.375 10.1458 421.5 9.6875C417.292 10.0625 414.042 11.3542 411.75 13.5625C409.458 15.7708 408.312 18.625 408.312 22.125C408.312 25.7083 409.229 28.6667 411.062 31C412.896 33.2917 415.271 35.0208 418.188 36.1875C421.146 37.3125 424.396 38.3125 427.938 39.1875C431.479 40.0208 435 41.0625 438.5 42.3125C442 43.5208 445.208 45.125 448.125 47.125C451.083 49.0833 453.479 52.0208 455.312 55.9375C457.146 59.8542 458.062 64.625 458.062 70.25C458.062 77.0833 456.083 82.9583 452.125 87.875C448.167 92.7917 443.5 96.3125 438.125 98.4375C432.75 100.562 427.25 101.625 421.625 101.625C409.25 101.625 397 98.8958 384.875 93.4375C385.125 88.0625 385.25 84.7708 385.25 83.5625C385.25 76.8125 384.604 69.5625 383.312 61.8125C387.062 60.0208 391.25 59.9375 395.875 61.5625C397.417 71.0208 400.396 78.2708 404.812 83.3125C409.271 88.3542 414.146 91.1667 419.438 91.75C424.396 91.4167 428.208 89.8125 430.875 86.9375C433.583 84.0208 434.938 80.3333 434.938 75.875C434.938 72.125 434.062 68.9583 432.312 66.375C430.562 63.75 428.25 61.7292 425.375 60.3125C422.5 58.8542 419.375 57.5417 416 56.375C412.667 55.2083 409.292 53.9792 405.875 52.6875C402.458 51.3542 399.312 49.7708 396.438 47.9375C393.604 46.1042 391.312 43.5417 389.562 40.25C387.812 36.9583 386.938 32.9583 386.938 28.25C386.938 24 387.604 20.1875 388.938 16.8125C390.312 13.4375 392.083 10.7292 394.25 8.6875C396.458 6.64583 399.021 4.9375 401.938 3.5625C404.896 2.1875 407.812 1.25 410.688 0.75C413.604 0.25 416.562 0 419.562 0ZM419.562 2.5625C416.062 2.5625 412.667 2.97917 409.375 3.8125C406.083 4.60417 402.875 5.91667 399.75 7.75C396.667 9.58333 394.188 12.2708 392.312 15.8125C390.438 19.3542 389.5 23.5 389.5 28.25C389.5 32.4583 390.375 36.0833 392.125 39.125C393.875 42.125 396.167 44.4583 399 46.125C401.875 47.7917 405.021 49.2708 408.438 50.5625C411.854 51.8125 415.229 53.0833 418.562 54.375C421.938 55.6667 425.062 57.125 427.938 58.75C430.812 60.375 433.125 62.6458 434.875 65.5625C436.625 68.4375 437.5 71.875 437.5 75.875C437.5 81.4167 435.729 85.8958 432.188 89.3125C428.646 92.7292 423.625 94.4375 417.125 94.4375C410.875 94.4375 405.062 91.8333 399.688 86.625C394.312 81.4167 390.771 73.625 389.062 63.25C388.229 62.7083 387.25 62.7083 386.125 63.25C387.25 69.7917 387.812 76.5625 387.812 83.5625C387.812 85.5208 387.729 88.2917 387.562 91.875C397.896 96.6667 407.75 99.0625 417.125 99.0625C424.875 99.0625 432.042 96.7708 438.625 92.1875C445.208 87.5625 448.5 81.1042 448.5 72.8125C448.5 68.1042 447.583 64.125 445.75 60.875C443.917 57.5833 441.521 55.0208 438.562 53.1875C435.604 51.3542 432.354 49.7708 428.812 48.4375C425.271 47.1042 421.75 45.8542 418.25 44.6875C414.75 43.4792 411.521 42.1458 408.562 40.6875C405.646 39.2292 403.271 37.1667 401.438 34.5C399.604 31.7917 398.688 28.5208 398.688 24.6875C398.688 19.3125 400.5 15.0208 404.125 11.8125C407.75 8.60417 412.896 7 419.562 7C431.146 7 439.125 15.0208 443.5 31.0625C444.792 31.2708 445.688 30.9792 446.188 30.1875C444.812 20.0208 441.792 12.875 437.125 8.75C432.5 4.625 426.646 2.5625 419.562 2.5625Z" fill="white"/>
</svg>
